{"title":"The Poet 2003 DVDrip English Klam","uid":6798973,"size":1155499178,"categoryP":"video","categoryS":"movies","magnet":"?xt=urn:btih:4f88b1f1ac776f22d6b507c4a7e69f8fc97e07ef&amp;dn=The+Poet+2003+DVDrip+English+Klam&amp;tr=udp%3A%2F%2Ftracker.openbittorrent.com%3A80&amp;tr=udp%3A%2F%2Fopen.demonii.com%3A1337&amp;tr=udp%3A%2F%2Ftracker.coppersurfer.tk%3A6969&amp;tr=udp%3A%2F%2Fexodus.desync.com%3A6969","seeders":0,"leechers":1,"uploader":"Klambake","files":-1,"time":1320586090,"description":"With: Dougray Scott, JÃƒÂ¼rgen Prochnow and Laura Harring\n\nAls huurmoordenaar Andrei een onschuldige getuige van ÃƒÂ©ÃƒÂ©n van zijn moorden moet doden, krijgt hij vreemd genoegd de drang om zijn slachtoffer beter te leren kennen. Alhoewel de politie hem op de hielen zit, voelt Andrei zich aangetrokken tot Paula, de zus van het slachtoffer. Maar zij heeft gezworen de moordenaar te vinden en te laten berechten. De twee krijgen een verhouding en vinden in elkaar de vervulling van een diep en onuitgesproken verlangen. Andrei kan zo het verleden vergeten en Paula het heden. Maar het verschrikkelijke geheim dat hen bij elkaar heeft gebracht kan niet langer onuitgesproken worden.\n\nA contract killer sees a chance to free himself from a tragic past.\n\n------------------ Dutch Friends ------------------\nYou can find my Friends at: http://www.Film-Test.nl \n------ They got my dutch subs ----- and more ------\n\nGeneral:\n\nComplete name                    : The Poet\\The Poet.avi\nFormat                           : AVI\nFormat/Info                      : Audio Video Interleave\nFile size                        : 1.08 GiB\nDuration                         : 1h 35mn\nOverall bit rate                 : 1 608 Kbps\n\nVideo:\n\nFormat                           : MPEG-4 Visual\nFormat profile                   : Simple@L3\nFormat settings, BVOP            : No\nFormat settings, QPel            : No\nFormat settings, GMC             : No warppoints\nFormat settings, Matrix          : Default (H.263)\nCodec ID                         : XVID\nCodec ID/Hint                    : XviD\nDuration                         : 1h 35mn\nBit rate                         : 1 405 Kbps\nWidth                            : 704 pixels\nHeight                           : 396 pixels\nDisplay aspect ratio             : 16:9\nFrame rate                       : 25.000 fps\nColor space                      : YUV\nChroma subsampling               : 4:2:0\nBit depth                        : 8 bits\nScan type                        : Progressive\nCompression mode                 : Lossy\nBits/(Pixel*Frame)               : 0.202\nStream size                      : 963 MiB (87%)\nWriting library                  : XviD 1.1.2 (UTC 2006-11-01)\n\nAudio:\n\nFormat                           : AC-3\nFormat/Info                      : Audio Coding 3\nMode extension                   : CM (complete main)\nCodec ID                         : 2000\nDuration                         : 1h 35mn\nBit rate mode                    : Constant\nBit rate                         : 192 Kbps\nChannel(s)                       : 2 channels\nChannel positions                : Front: L R\nSampling rate                    : 48.0 KHz\nBit depth                        : 16 bits\nCompression mode                 : Lossy\nStream size                      : 132 MiB (12%)\nAlignment                        : Aligned on interleaves\nInterleave, duration             : 32 ms (0.80 video frame)\n","torrent":{"xt":"urn:btih:4f88b1f1ac776f22d6b507c4a7e69f8fc97e07ef","amp;dn":"The+Poet+2003+DVDrip+English+Klam","amp;tr":["udp%3A%2F%2Ftracker.openbittorrent.com%3A80","udp%3A%2F%2Fopen.demonii.com%3A1337","udp%3A%2F%2Ftracker.coppersurfer.tk%3A6969","udp%3A%2F%2Fexodus.desync.com%3A6969"],"infoHash":"4f88b1f1ac776f22d6b507c4a7e69f8fc97e07ef","infoHashBuffer":{"type":"Buffer","data":[79,136,177,241,172,119,111,34,214,181,7,196,167,230,159,143,201,126,7,239]},"announce":[],"urlList":[]}}